<?xml version="1.0" encoding="UTF-8"?>
<svg version="1.1" xmlns="http://www.w3.org/2000/svg" width="95" height="92">
<path d="M0 0 C31.35 0 62.7 0 95 0 C95 30.36 95 60.72 95 92 C63.65 92 32.3 92 0 92 C0 61.64 0 31.28 0 0 Z " fill="#53468C" transform="translate(0,0)"/>
<path d="M0 0 C6.6 0 13.2 0 20 0 C18.06692503 1.28871665 16.1095313 2.54202443 14.125 3.75 C9.20297376 7.29385889 5.92815335 11.15716788 4 17 C3.68116313 19.74120926 3.68116313 19.74120926 3.69360352 22.65722656 C3.67761612 23.76898254 3.66162872 24.88073853 3.64515686 26.02618408 C3.63979416 27.21894958 3.63443146 28.41171509 3.62890625 29.640625 C3.61987778 30.87737976 3.6108493 32.11413452 3.60154724 33.3883667 C3.58704845 36.00416648 3.57815894 38.62000249 3.57446289 41.23583984 C3.5680354 45.22149231 3.5134034 49.20607132 3.46289062 53.19140625 C3.45342394 55.73697164 3.44619008 58.2825465 3.44140625 60.828125 C3.42187393 62.01279358 3.40234161 63.19746216 3.38221741 64.41802979 C3.42204635 71.78628486 4.48934923 77.05438547 9 83 C11.02268906 84.96530683 11.02268906 84.96530683 13.1875 86 C14.19876953 86.556875 14.19876953 86.556875 15.23046875 87.125 C15.81441406 87.41375 16.39835937 87.7025 17 88 C17.66 88.33 18.32 88.66 19 89 C20.79477243 89.12138028 22.59393452 89.18006228 24.39257812 89.20874023 C25.52135376 89.22803085 26.65012939 89.24732147 27.81311035 89.26719666 C33.00263627 89.3249759 38.19207916 89.37457108 43.38183594 89.4050293 C46.11344049 89.42276068 48.84399658 89.45744032 51.57519531 89.50756836 C55.51883229 89.57985412 59.46198044 89.60207009 63.40625 89.62109375 C65.22243835 89.66283974 65.22243835 89.66283974 67.07531738 89.70542908 C75.08832648 89.68616367 80.91698422 88.44634892 87 83 C92.73359645 76.46329606 92.72297462 69.27216721 92.62890625 60.93359375 C92.63131821 59.70012711 92.63373016 58.46666046 92.63621521 57.19581604 C92.63523973 54.59966807 92.6219182 52.00349853 92.59692383 49.4074707 C92.56257418 45.44605531 92.57629496 41.48686803 92.59570312 37.52539062 C92.58880512 34.99478223 92.57913315 32.46417955 92.56640625 29.93359375 C92.57136612 28.7563121 92.57632599 27.57903046 92.58143616 26.36607361 C92.47031202 18.56643098 91.46009928 13.09208088 86.2890625 6.9765625 C82.67480387 4.04103789 79.62047104 2.12694416 75 1 C75 0.67 75 0.34 75 0 C81.6 0 88.2 0 95 0 C95 30.36 95 60.72 95 92 C63.65 92 32.3 92 0 92 C0 61.64 0 31.28 0 0 Z " fill="#453785" transform="translate(0,0)"/>
<path d="M0 0 C1.61241325 -0.01429802 1.61241325 -0.01429802 3.25740051 -0.02888489 C4.98563301 -0.02751778 4.98563301 -0.02751778 6.7487793 -0.02612305 C7.94351364 -0.03040817 9.13824799 -0.0346933 10.3691864 -0.03910828 C12.89504361 -0.04484687 15.42091734 -0.04535531 17.94677734 -0.04101562 C21.79838508 -0.03786195 25.64921995 -0.06130024 29.50073242 -0.08666992 C31.95841375 -0.08894367 34.41609713 -0.08964606 36.8737793 -0.08862305 C38.0198616 -0.09783279 39.16594391 -0.10704254 40.34675598 -0.11653137 C47.64173907 -0.07462896 53.61309981 0.48784601 59.7175293 4.8527832 C60.24733398 5.40450195 60.77713867 5.9562207 61.32299805 6.5246582 C61.86569336 7.06606445 62.40838867 7.6074707 62.9675293 8.1652832 C68.05767098 15.12395792 67.9778227 21.74289445 67.97924805 30.1105957 C67.99066833 31.961483 67.99066833 31.961483 68.00231934 33.84976196 C68.01309988 36.4536131 68.0159818 39.0575074 68.01147461 41.66137695 C68.01050297 45.62956405 68.05213987 49.59581274 68.09643555 53.5637207 C68.1016435 56.10017503 68.10433072 58.63663603 68.10424805 61.1730957 C68.12064331 62.35149017 68.13703857 63.52988464 68.15393066 64.74398804 C68.09284537 72.08248654 67.00732008 77.35655101 62.51049805 83.2746582 C60.1237793 85.4309082 60.1237793 85.4309082 57.82299805 86.7746582 C57.05600586 87.2387207 56.28901367 87.7027832 55.4987793 88.1809082 C52.06872694 90.06777394 50.04632388 90.41674219 46.10205078 90.4675293 C44.97004745 90.48359222 43.83804413 90.49965515 42.67173767 90.51620483 C37.47242037 90.56068619 32.2731911 90.60219123 27.07373047 90.62475586 C24.33543109 90.63804503 21.59788585 90.66579997 18.85986328 90.70678711 C14.90879567 90.7659261 10.95808666 90.78346129 7.0065918 90.7980957 C5.79063828 90.82076508 4.57468475 90.84343445 3.32188416 90.86679077 C-4.14707004 90.84834577 -9.46738195 89.85657758 -15.48950195 85.2746582 C-17.86450195 82.8371582 -17.86450195 82.8371582 -19.48950195 80.2746582 C-20.00907471 79.49525879 -20.52864746 78.71585937 -21.06396484 77.9128418 C-23.1913208 72.4835117 -22.93735016 67.28305455 -22.9230957 61.5012207 C-22.93095848 59.64465347 -22.93095848 59.64465347 -22.9389801 57.75057983 C-22.94703215 54.46888623 -22.93995255 51.18761245 -22.9286499 47.90594482 C-22.92592294 44.58601817 -22.96111336 41.26633658 -22.98754883 37.9465332 C-22.98916127 35.4022628 -22.98858249 32.85798987 -22.9855957 30.3137207 C-22.99682968 29.12702789 -23.00806366 27.94033508 -23.01963806 26.71768188 C-22.95271058 18.71850099 -21.94421143 13.21701057 -16.5246582 7.0324707 C-15.87368164 6.49364258 -15.22270508 5.95481445 -14.55200195 5.3996582 C-13.90360352 4.84536133 -13.25520508 4.29106445 -12.5871582 3.7199707 C-8.51393393 0.91346608 -4.91028244 0.02402072 0 0 Z M-15.42700195 7.6496582 C-15.97227539 8.21426758 -16.51754883 8.77887695 -17.0793457 9.3605957 C-20.03538093 13.37294268 -20.74336843 17.12646571 -20.79589844 22.03955078 C-20.81188583 23.17455521 -20.82787323 24.30955963 -20.84434509 25.47895813 C-20.84970779 26.69673447 -20.8550705 27.9145108 -20.8605957 29.16918945 C-20.86962418 30.43051193 -20.87865265 31.69183441 -20.88795471 32.99137878 C-20.90245436 35.65862303 -20.91213801 38.32543908 -20.91503906 40.99267578 C-20.92041509 44.39225514 -20.95807497 47.79064185 -21.00378323 51.18988514 C-21.04087759 54.45374774 -21.04207624 57.71764452 -21.0480957 60.98168945 C-21.06762802 62.1933931 -21.08716034 63.40509674 -21.10728455 64.65351868 C-21.06919134 71.82662424 -20.29653706 76.77708223 -15.48950195 82.2746582 C-10.82581048 86.59710396 -7.20408684 88.51314237 -0.83813477 88.58105469 C0.29694519 88.59704208 1.43202515 88.61302948 2.60150146 88.62950134 C3.82443909 88.63486404 5.04737671 88.64022675 6.30737305 88.64575195 C7.57011047 88.65478043 8.8328479 88.6638089 10.1338501 88.67311096 C12.80707043 88.68762297 15.4798632 88.69729728 18.15307617 88.70019531 C21.56053132 88.70556601 24.96679351 88.7431958 28.37391281 88.78893948 C31.64332743 88.82604182 34.91277633 88.82723354 38.18237305 88.83325195 C39.39721375 88.85278427 40.61205444 88.87231659 41.8637085 88.8924408 C49.05435873 88.85436181 53.99358501 88.08029107 59.51049805 83.2746582 C64.03756796 78.50932145 65.75452638 74.10744359 65.78515625 67.56982422 C65.79468826 66.44838516 65.80422028 65.32694611 65.81404114 64.17152405 C65.81312973 62.96934738 65.81221832 61.76717072 65.8112793 60.52856445 C65.81770699 58.66275978 65.81770699 58.66275978 65.82426453 56.75926208 C65.83147043 53.45878968 65.8283885 50.15850004 65.82269287 46.85803223 C65.82299755 44.84046202 65.83303538 42.82318542 65.84667969 40.80566406 C65.87118326 36.92149098 65.87533478 33.03780521 65.8737793 29.15356445 C65.88298904 27.95341202 65.89219879 26.75325958 65.90168762 25.51673889 C65.86030854 18.04585787 65.19607999 13.39573992 60.19799805 7.5871582 C54.83931464 2.97619806 49.55879774 1.16920454 42.609375 1.11352539 C41.15184563 1.09911407 41.15184563 1.09911407 39.66487122 1.08441162 C38.62006088 1.08016174 37.57525055 1.07591187 36.4987793 1.0715332 C35.4159819 1.06583313 34.33318451 1.06013306 33.21757507 1.05426025 C30.9253334 1.0448166 28.63307819 1.03827879 26.34082031 1.03442383 C22.85351492 1.02474292 19.36680519 0.99372297 15.87963867 0.9621582 C13.64852237 0.95562524 11.41740186 0.95037592 9.1862793 0.9465332 C8.15159012 0.9341864 7.11690094 0.9218396 6.05085754 0.90911865 C-1.70177719 0.93268085 -9.86576588 1.63971604 -15.42700195 7.6496582 Z " fill="#7665BF" transform="translate(25.489501953125,-0.274658203125)"/>
<path d="M0 0 C1.65 0 3.3 0 5 0 C5 2.64 5 5.28 5 8 C5.99 8 6.98 8 8 8 C8 5.36 8 2.72 8 0 C9.65 0 11.3 0 13 0 C13 2.64 13 5.28 13 8 C15.97 8 18.94 8 22 8 C22.268125 7.21625 22.53625 6.4325 22.8125 5.625 C24 3 24 3 27 1 C31.66488876 0.17010406 35.03294265 0.38818821 39.0625 2.9375 C41.669717 7.05858493 42.03945854 10.24941677 41 15 C39.0625 18.0625 39.0625 18.0625 36 20 C32.84490148 20.69035609 30.15028261 20.72917934 27 20 C23.9375 17.625 23.9375 17.625 22 15 C22 14.34 22 13.68 22 13 C13.42 13 4.84 13 -4 13 C-4 11.35 -4 9.7 -4 8 C-2.68 8 -1.36 8 0 8 C0 5.36 0 2.72 0 0 Z " fill="#F8F7FA" transform="translate(29,47)"/>
<path d="M0 0 C3.46890262 0.80292864 5.09990871 2.70869687 7.16015625 5.5 C7.16015625 6.16 7.16015625 6.82 7.16015625 7.5 C15.74015625 7.5 24.32015625 7.5 33.16015625 7.5 C33.16015625 9.15 33.16015625 10.8 33.16015625 12.5 C31.84015625 12.5 30.52015625 12.5 29.16015625 12.5 C29.16015625 15.14 29.16015625 17.78 29.16015625 20.5 C27.51015625 20.5 25.86015625 20.5 24.16015625 20.5 C24.16015625 17.86 24.16015625 15.22 24.16015625 12.5 C23.17015625 12.5 22.18015625 12.5 21.16015625 12.5 C21.16015625 15.14 21.16015625 17.78 21.16015625 20.5 C19.51015625 20.5 17.86015625 20.5 16.16015625 20.5 C16.16015625 17.86 16.16015625 15.22 16.16015625 12.5 C13.19015625 12.5 10.22015625 12.5 7.16015625 12.5 C6.89203125 13.28375 6.62390625 14.0675 6.34765625 14.875 C5.16015625 17.5 5.16015625 17.5 2.16015625 19.5 C-2.50473251 20.32989594 -5.8727864 20.11181179 -9.90234375 17.5625 C-12.50956075 13.44141507 -12.87930229 10.25058323 -11.83984375 5.5 C-8.72581466 0.57782499 -5.54611442 -0.29628658 0 0 Z " fill="#F8F7FA" transform="translate(37.83984375,22.5)"/>
<path d="M0 0 C2.31 0 4.62 0 7 0 C7.625 3.375 7.625 3.375 8 7 C6 9 6 9 2.875 9.125 C1.451875 9.063125 1.451875 9.063125 0 9 C-1.125 2.25 -1.125 2.25 0 0 Z " fill="#594C97" transform="translate(57,53)"/>
<path d="M0 0 C2.31 0 4.62 0 7 0 C7.625 3.375 7.625 3.375 8 7 C6 9 6 9 2.875 9.125 C1.451875 9.063125 1.451875 9.063125 0 9 C-1.125 2.25 -1.125 2.25 0 0 Z " fill="#534888" transform="translate(32,28)"/>
</svg>
